<svg width="48" height="48" viewBox="0 0 48 48" fill="none" xmlns="http://www.w3.org/2000/svg">
<rect x="0.5" y="0.5" width="47" height="47" rx="23.5" fill="white"/>
<path d="M17.75 24.4167L24.4167 17.75C25.1902 16.9764 26.2394 16.5419 27.3333 16.5419C28.4273 16.5419 29.4764 16.9764 30.25 17.75C31.0235 18.5235 31.4581 19.5727 31.4581 20.6667C31.4581 21.7606 31.0235 22.8098 30.25 23.5833L23.5833 30.25C22.8098 31.0235 21.7606 31.4581 20.6667 31.4581C19.5727 31.4581 18.5235 31.0235 17.75 30.25C16.9764 29.4764 16.5419 28.4273 16.5419 27.3333C16.5419 26.2394 16.9764 25.1902 17.75 24.4167" stroke="#4F8FC0" stroke-width="1.8" stroke-linecap="round" stroke-linejoin="round"/>
<path d="M21.0833 21.0834L26.9166 26.9167" stroke="#4F8FC0" stroke-width="1.8" stroke-linecap="round" stroke-linejoin="round"/>
<rect x="0.5" y="0.5" width="47" height="47" rx="23.5" stroke="#4F8FC0"/>
</svg>
