<svg width="151" height="47" viewBox="0 0 151 47" fill="none" xmlns="http://www.w3.org/2000/svg">
<path d="M63.634 25.2219C63.0753 27.1501 62.0469 28.6476 60.5487 29.7143C59.0505 30.781 57.2675 31.3149 55.1996 31.316C52.4339 31.316 50.2092 30.4567 48.5255 28.738C46.8418 27.0194 46 24.7448 46 21.9143C46 19.1279 46.8479 16.8296 48.5437 15.0194C50.2396 13.2093 52.4002 12.3036 55.0257 12.3025C57.7428 12.3025 59.9034 13.2258 61.5076 15.0724C63.1118 16.919 63.9133 19.4202 63.9122 22.5762V23.0626H51.0229C51.0461 24.618 51.4237 25.8022 52.1557 26.6151C52.8877 27.4281 53.9155 27.8341 55.2393 27.833C56.9815 27.833 58.2015 26.9626 58.8993 25.2219H63.634ZM58.8943 19.9271C58.7839 18.7435 58.4002 17.7744 57.7433 17.0199C57.0864 16.2654 56.1805 15.8881 55.0257 15.8881C54.523 15.8732 54.0226 15.9612 53.5552 16.1468C53.0878 16.3323 52.6634 16.6114 52.308 16.9669C51.5882 17.6873 51.1582 18.674 51.0179 19.9271H58.8943Z" fill="white"/>
<path d="M77.1891 19.0932V23.516H66.7011V19.0932H77.1891Z" fill="white"/>
<path d="M108.627 30.7931H103.607V20.0677C103.607 18.8852 103.421 17.9741 103.051 17.3343C102.68 16.6945 101.913 16.3757 100.75 16.3779C98.4494 16.3779 97.2989 17.8169 97.2989 20.6948V30.7881H92.3505V19.8593C92.3505 18.7451 92.1645 17.8803 91.7924 17.2648C91.4204 16.6493 90.7027 16.342 89.6395 16.3431C87.247 16.3431 86.0502 17.9101 86.0491 21.044V30.7931H81.0941V12.8254H85.8007V15.2974C87.2161 13.3251 89.1212 12.3389 91.5159 12.3389C94.0011 12.3389 95.6975 13.3251 96.605 15.2974C98.0403 13.3251 100.003 12.3389 102.494 12.3389C104.468 12.3389 105.984 12.9131 107.042 14.0614C108.099 15.2097 108.628 16.7596 108.628 18.7109L108.627 30.7931Z" fill="white"/>
<path d="M129.397 25.2219C128.839 27.1501 127.811 28.6476 126.314 29.7143C124.816 30.781 123.033 31.3149 120.963 31.316C118.197 31.316 115.972 30.4567 114.289 28.738C112.605 27.0194 111.763 24.7448 111.763 21.9143C111.763 19.1279 112.611 16.8296 114.307 15.0194C116.003 13.2093 118.163 12.3036 120.789 12.3025C123.507 12.3025 125.668 13.2258 127.271 15.0724C128.874 16.919 129.675 19.4202 129.675 22.5762V23.0626H116.781C116.804 24.618 117.182 25.8022 117.914 26.6151C118.646 27.4281 119.674 27.8341 120.998 27.833C122.741 27.833 123.961 26.9626 124.657 25.2219H129.397ZM124.657 19.9271C124.542 18.7435 124.155 17.7744 123.498 17.0199C122.841 16.2654 121.935 15.8881 120.781 15.8881C120.278 15.8732 119.777 15.9612 119.31 16.1468C118.843 16.3323 118.418 16.6114 118.063 16.9669C117.343 17.6873 116.913 18.674 116.773 19.9271H124.657Z" fill="white"/>
<path d="M150.029 30.7931H145.359V28.4948C144.174 30.3524 142.362 31.2812 139.922 31.2812C137.436 31.2812 135.456 30.4164 133.98 28.6867C132.503 26.9571 131.766 24.6406 131.767 21.7373C131.767 18.9056 132.481 16.6311 133.91 14.9135C135.339 13.196 137.25 12.3373 139.643 12.3373C140.731 12.3327 141.806 12.5701 142.79 13.0322C143.743 13.4668 144.548 14.1687 145.108 15.0525V6H150.022L150.029 30.7931ZM145.289 21.7737C145.289 20.033 144.911 18.6751 144.156 17.7C143.401 16.7248 142.352 16.2378 141.01 16.2389C139.662 16.2389 138.616 16.7259 137.873 17.7C137.13 18.674 136.758 20.0203 136.757 21.7389C136.757 23.4807 137.134 24.8447 137.89 25.8308C138.645 26.817 139.685 27.3106 141.01 27.3117C142.379 27.3117 143.436 26.8297 144.181 25.8656C144.926 24.9015 145.296 23.5375 145.289 21.7737Z" fill="white"/>
<path d="M26.2506 34.9228C23.9155 33.1573 24.472 35.1826 24.472 35.1826C24.6823 37.0838 24.9903 42.2396 17.8708 42.9064C10.7513 43.5732 5.7814 34.4777 17.5015 30.9219C27.9895 27.745 28.1402 24.2074 28.0524 23.5008C28.1369 22.7943 27.9895 19.2633 17.5015 16.0798C5.78305 12.5223 10.7513 3.42179 17.8725 4.09523C24.9937 4.76867 24.684 9.9179 24.4736 11.8191C24.4736 11.8191 23.9172 13.8444 26.2523 12.0789C26.2523 12.0789 29.4419 9.6333 29.4419 7.11494C29.4419 4.59659 29.4419 0 15.6484 0C1.85482 0 0.00165581 5.86238 0.00165581 8.03161C0.00165581 9.77229 1.79188 15.1151 17.6257 20.2759H17.6108C18.115 20.4572 18.5889 20.7132 19.0168 21.0354C20.7773 22.3707 20.8303 25.0678 18.3461 26.4047C18.2186 26.4726 17.6042 26.7207 17.4568 26.7687H17.475C1.77698 31.8931 0 36.68 0 38.7748C0 40.6809 1.85316 47 15.6467 47C29.4402 47 29.4402 42.41 29.4402 39.8851C29.4402 37.3601 26.2506 34.9228 26.2506 34.9228Z" fill="white"/>
<path d="M8.18102 19.8739C8.82524 18.1961 6.52494 19.0465 6.52494 19.0465C6.52494 19.0465 2.20752 20.6631 2.20752 23.6348C2.21083 26.5867 6.52825 28.2248 6.52825 28.2248C6.52825 28.2248 9.0604 28.976 8.18434 27.3975C7.54674 26.2525 6.881 25.2713 6.68226 24.4986C6.53644 23.9314 6.53644 23.3366 6.68226 22.7695C6.87768 22.0001 7.71235 21.0966 8.18102 19.8739Z" fill="white"/>
</svg>
